# xmcd
#
# Track frame offsets: 
#        150
#        18302
#        36007
#        58540
#        74590
#        88602
#        105597
#
# Disc length: 1603 seconds
#
# Revision: 4
# Processed by: cddbd v1.5.2PL0 Copyright (c) Steve Scherf et al.
# Submitted via: ExactAudioCopy v1.0b3
#
DISCID=54064107
DTITLE=山崎まさよし - stereo
DYEAR=1996
DGENRE=Folk
TTITLE0=ツバメ
TTITLE1=セロリ(prototype)
TTITLE2=ただ ただ...
TTITLE3=Mr.Spell Man
TTITLE4=ステレオ
TTITLE5=ふたりでPARISに行こう
TTITLE6=コイン
EXTD=ID3G:   0
EXTT0=
EXTT1=
EXTT2=
EXTT3=
EXTT4=
EXTT5=
EXTT6=
PLAYORDER=
